<svg width="250" height="50" viewBox="0 0 250 50" fill="none" xmlns="http://www.w3.org/2000/svg">
<g id="Group 2">
<g id="company-logo-dark">
<g id="Group 127">
<g id="Logo Dark">
<g id="Group">
<path id="Vector" d="M39.7343 42.993C38.6279 39.8282 35.7641 38.0598 32.3732 38.0598L19.055 38.0598C17.5738 38.0598 16.6809 36.4358 17.4585 35.1751C19.4256 31.9858 20.9697 27.5512 25.0421 26.1215C25.3062 26.0288 25.4636 25.759 25.4168 25.4831C25.4156 25.4765 25.4145 25.4699 25.4133 25.4634C25.3568 25.1492 25.0551 24.9432 24.7411 25.0002C15.1635 26.7391 12.6939 36.1523 8.88754 37.8103C8.06566 38.1683 7.38018 38.7797 6.98935 39.5865L6.9062 39.7581C6.72916 40.1236 6.99537 40.5483 7.40146 40.5483L30.7017 40.5483C31.3287 40.5483 31.7636 41.1821 31.527 41.7628C31.0069 43.0392 30.9918 44.6496 31.6043 46.2015C32.7057 48.9922 35.4185 50.5363 37.6635 49.6503C39.9086 48.7643 40.7244 45.8251 39.7343 42.993Z" fill="#EC503A"/>
<path id="Vector_2" d="M27.0956 29.4767C27.1011 29.4788 27.1067 29.4808 27.1122 29.4828C27.4122 29.5903 27.7411 29.4317 27.8485 29.1317C31.129 19.9691 24.2129 13.1246 24.6803 8.99966C24.7813 8.10906 24.5944 7.20968 24.0913 6.46795L24.0034 6.33847C23.7558 5.97343 23.2552 5.99213 23.0521 6.34382L11.402 26.5224C11.0885 27.0654 10.3222 27.1251 9.93763 26.6299C9.09231 25.5413 7.70518 24.723 6.05493 24.4775C3.08741 24.0359 0.393808 25.6133 0.0385955 28.0005C-0.316617 30.3878 1.82086 32.564 4.76859 33.1226C8.06257 33.7468 11.0259 32.1509 12.7214 29.2142L19.3805 17.6803C20.1212 16.3975 21.974 16.4364 22.6771 17.7403C24.4554 21.0382 27.5262 24.5918 26.7291 28.8328C26.6773 29.1082 26.8327 29.3798 27.0956 29.4767Z" fill="#EC503A"/>
<path id="Vector_3" d="M44.8475 37.004L33.1974 16.8254C32.8839 16.2824 33.2153 15.5889 33.8365 15.5034C35.2019 15.3157 36.6041 14.5235 37.6419 13.2171C39.5081 10.868 39.4889 7.74656 37.599 6.2453C35.7092 4.74404 32.7558 5.50705 30.7982 7.78058C28.6107 10.3212 28.511 13.6854 30.2065 16.6221L36.8656 28.156C37.606 29.4383 36.6471 31.0241 35.1671 30.981C31.4201 30.8717 26.8043 31.7557 23.5293 28.9407C23.3155 28.7569 23.0015 28.7512 22.7854 28.9322L22.7727 28.9428C22.5298 29.1462 22.4994 29.5095 22.7041 29.7513C28.9968 37.1863 38.3866 34.6192 41.73 37.0836C42.4547 37.6177 43.3307 37.9064 44.2286 37.8412L44.4108 37.828C44.8158 37.7986 45.0506 37.3557 44.8475 37.004Z" fill="#EC503A"/>
</g>
</g>
<g id="Text Dark">
<g id="Group 125">
<path id="Union" fill-rule="evenodd" clip-rule="evenodd" d="M150.531 15.2195V39.7457H142.287V15.2195H150.531ZM146.384 13.0177C145.121 13.0177 144.028 12.574 143.107 11.6865C142.219 10.7989 141.775 9.70661 141.775 8.40947C141.775 7.11233 142.219 6.02 143.107 5.13248C144.028 4.21083 145.121 3.75 146.384 3.75C147.647 3.75 148.739 4.21083 149.661 5.13248C150.582 6.02 151.043 7.11233 151.043 8.40947C151.043 9.67247 150.582 10.7648 149.661 11.6865C148.773 12.574 147.681 13.0177 146.384 13.0177ZM171.57 24.2312C170.17 22.8658 168.481 22.1831 166.501 22.1831C164.93 22.1831 163.667 22.6951 162.712 23.7191C161.756 24.7091 161.278 25.9721 161.278 27.5082C161.278 29.0101 161.756 30.2731 162.712 31.2972C163.702 32.2871 164.965 32.7821 166.501 32.7821C168.515 32.7821 170.307 32.0311 171.877 30.5291L175.973 36.5711C174.983 37.7317 173.618 38.6875 171.877 39.4384C170.136 40.1553 168.276 40.5137 166.296 40.5137C162.609 40.5137 159.469 39.2507 156.875 36.7247C154.314 34.1645 153.034 31.0924 153.034 27.5082C153.034 23.8898 154.314 20.8176 156.875 18.2916C159.435 15.7315 162.507 14.4514 166.091 14.4514C170.324 14.4514 173.703 15.7656 176.229 18.394L171.57 24.2312ZM128.303 23.6679C127.45 23.2925 127.023 22.8316 127.023 22.2855C127.023 21.3979 127.74 20.9542 129.173 20.9542C131.495 20.9542 133.406 21.8246 134.908 23.5655L139.414 18.7525C137.332 15.8851 133.833 14.4514 128.917 14.4514C125.777 14.4514 123.319 15.2365 121.544 16.8067C119.769 18.3428 118.882 20.152 118.882 22.2343C118.882 23.6338 119.189 24.8627 119.803 25.9209C120.418 26.9449 121.169 27.73 122.056 28.2762C122.978 28.7882 123.968 29.2491 125.026 29.6587C126.118 30.0683 127.108 30.3755 127.996 30.5803C128.917 30.7851 129.685 31.0582 130.3 31.3996C130.914 31.7409 131.222 32.1506 131.222 32.6285C131.222 33.5501 130.471 34.0109 128.969 34.0109C126.34 34.0109 124.053 33.0381 122.107 31.0924L117.653 36.3151C120.213 39.1142 123.831 40.5137 128.508 40.5137C131.955 40.5137 134.618 39.7457 136.495 38.2096C138.407 36.6394 139.363 34.7448 139.363 32.5261C139.363 30.7852 138.936 29.3515 138.083 28.225C137.229 27.0644 136.188 26.2452 134.959 25.7673C133.765 25.2894 132.57 24.9139 131.375 24.6408C130.18 24.3336 129.156 24.0093 128.303 23.6679ZM100.262 15.2195V28.1226C100.262 29.5222 100.62 30.6486 101.337 31.502C102.054 32.3554 102.993 32.7821 104.153 32.7821C105.314 32.7821 106.235 32.3554 106.918 31.502C107.635 30.6486 107.993 29.5222 107.993 28.1226V15.2195H116.237V28.737C116.237 32.2871 115.128 35.1374 112.909 37.2879C110.69 39.4385 107.772 40.5137 104.153 40.5137C100.501 40.5137 97.5651 39.4385 95.3463 37.2879C93.1275 35.1374 92.0181 32.2871 92.0181 28.737V15.2195H100.262ZM58.2437 39.7457V26.2281C58.2437 24.9992 58.568 24.0264 59.2165 23.3095C59.8992 22.5585 60.7868 22.1831 61.8791 22.1831C62.9714 22.1831 63.8419 22.5585 64.4904 23.3095C65.139 24.0264 65.4633 24.9992 65.4633 26.2281V39.7457H73.707V26.2281C73.707 24.9992 74.0312 24.0264 74.6798 23.3095C75.3625 22.5585 76.25 22.1831 77.3424 22.1831C78.4347 22.1831 79.3052 22.5585 79.9537 23.3095C80.6023 24.0264 80.9266 24.9992 80.9266 26.2281V39.7457H89.1703V25.1016C89.1703 21.7222 88.3169 19.1109 86.6101 17.2676C84.9375 15.3901 82.6504 14.4514 79.7489 14.4514C76.5743 14.4514 74.1337 16.0046 72.4269 19.1109C70.9249 16.0046 68.3819 14.4514 64.7977 14.4514C61.7596 14.4514 59.575 15.851 58.2437 18.65V15.2195H50V39.7457H58.2437Z" fill="#FFEA9F"/>
<path id="Union_2" fill-rule="evenodd" clip-rule="evenodd" d="M249.488 15.2195V39.7457H241.244V15.2195H249.488ZM245.341 13.0177C244.078 13.0177 242.985 12.574 242.064 11.6865C241.176 10.7989 240.732 9.70661 240.732 8.40947C240.732 7.11233 241.176 6.02 242.064 5.13248C242.985 4.21083 244.078 3.75 245.341 3.75C246.604 3.75 247.696 4.21083 248.617 5.13248C249.539 6.02 250 7.11233 250 8.40947C250 9.67247 249.539 10.7648 248.617 11.6865C247.73 12.574 246.638 13.0177 245.341 13.0177ZM212.664 15.2195H220.908V17.5236C222.513 15.4755 224.595 14.4514 227.155 14.4514C230.364 14.4514 233.094 15.6632 235.347 18.0868C237.634 20.4763 238.778 23.5997 238.778 27.457C238.778 31.2118 237.669 34.3352 235.45 36.8271C233.265 39.2848 230.5 40.5137 227.155 40.5137C224.492 40.5137 222.41 39.575 220.908 37.6975V49.7814H212.664V15.2195ZM229.152 23.7191C228.23 22.6951 227.087 22.1831 225.721 22.1831C224.356 22.1831 223.212 22.6951 222.291 23.7191C221.369 24.7091 220.908 25.955 220.908 27.457C220.908 28.9589 221.369 30.2219 222.291 31.246C223.212 32.27 224.356 32.7821 225.721 32.7821C227.087 32.7821 228.23 32.27 229.152 31.246C230.073 30.2219 230.534 28.9589 230.534 27.457C230.534 25.955 230.073 24.7091 229.152 23.7191ZM200.923 37.4415V39.7457H209.167V15.2195H200.923V17.2676C199.421 15.3901 197.339 14.4514 194.676 14.4514C191.331 14.4514 188.549 15.6973 186.33 18.1892C184.146 20.647 183.053 23.7533 183.053 27.5082C183.053 31.3654 184.18 34.5059 186.433 36.9295C188.72 39.319 191.468 40.5137 194.676 40.5137C197.237 40.5137 199.319 39.4897 200.923 37.4415ZM196.11 32.7821C194.745 32.7821 193.601 32.2871 192.679 31.2972C191.758 30.2731 191.297 29.0101 191.297 27.5082C191.297 26.0062 191.758 24.7432 192.679 23.7191C193.601 22.6951 194.745 22.1831 196.11 22.1831C197.476 22.1831 198.619 22.6951 199.541 23.7191C200.462 24.7432 200.923 26.0062 200.923 27.5082C200.923 29.0101 200.462 30.2731 199.541 31.2972C198.619 32.2871 197.476 32.7821 196.11 32.7821Z" fill="#EC503A"/>
</g>
</g>
</g>
</g>
</g>
</svg>
